<?xml version="1.0" standalone="no"?>
<!DOCTYPE svg PUBLIC "-//W3C//DTD SVG 20010904//EN"
 "http://www.w3.org/TR/2001/REC-SVG-20010904/DTD/svg10.dtd">
<svg version="1.0" xmlns="http://www.w3.org/2000/svg"
 width="759.000000pt" height="759.000000pt" viewBox="0 0 759.000000 759.000000"
 preserveAspectRatio="xMidYMid meet">
<metadata>
Created by potrace 1.14, written by Peter Selinger 2001-2017
</metadata>
<g transform="translate(0.000000,759.000000) scale(0.100000,-0.100000)"
fill="#000000" stroke="none">
<path d="M4379 7216 c-2 -2 -38 -7 -79 -11 -116 -11 -141 -15 -220 -30 -49
-10 -75 -15 -100 -20 -45 -8 -243 -66 -315 -91 -172 -61 -373 -159 -530 -258
-49 -31 -99 -62 -110 -69 -11 -6 -24 -17 -30 -23 -5 -6 -26 -21 -45 -34 -19
-13 -42 -31 -52 -39 -9 -9 -31 -27 -49 -41 -105 -80 -339 -316 -339 -342 0 -4
-7 -8 -15 -8 -8 0 -15 -4 -15 -8 0 -5 -20 -35 -45 -68 -106 -139 -115 -152
-115 -163 0 -6 -3 -11 -8 -11 -4 0 -16 -17 -27 -37 -11 -20 -24 -41 -30 -48
-14 -15 -68 -114 -111 -205 -20 -41 -40 -82 -45 -90 -5 -8 -12 -22 -15 -30 -7
-18 -17 -43 -19 -50 -1 -3 -7 -17 -13 -31 -20 -48 -74 -204 -78 -225 -2 -12
-10 -40 -18 -63 -9 -22 -13 -41 -11 -41 2 0 -1 -15 -6 -32 -12 -41 -38 -169
-45 -223 -3 -22 -7 -53 -10 -70 -18 -119 -25 -465 -11 -595 12 -113 16 -144
22 -170 2 -14 7 -40 10 -57 12 -79 17 -101 32 -158 8 -33 16 -64 17 -70 4 -18
37 -130 43 -145 3 -8 7 -19 8 -25 7 -29 103 -260 133 -320 55 -108 124 -230
133 -233 5 -2 9 -8 9 -13 0 -8 47 -87 60 -99 3 -3 21 -27 39 -55 19 -27 38
-52 41 -55 3 -3 35 -41 70 -85 71 -88 266 -286 326 -331 21 -16 46 -36 54 -44
42 -38 173 -133 264 -190 66 -41 137 -80 146 -80 5 0 10 -4 10 -10 0 -5 9 -10
19 -10 11 0 21 -3 23 -7 4 -10 63 -38 223 -108 33 -14 144 -56 160 -59 73 -18
76 -23 45 -73 -23 -39 -29 -105 -12 -154 15 -44 80 -107 116 -111 14 -2 28 -6
31 -9 3 -3 26 -4 52 -2 54 5 112 42 139 88 22 36 24 46 27 110 2 38 6 49 17
47 8 -2 33 -5 55 -7 22 -2 40 -5 40 -5 0 -7 245 -23 350 -23 83 0 255 9 315
17 78 11 118 17 140 21 14 3 41 8 60 11 81 13 303 75 410 114 148 55 364 159
485 234 95 59 185 122 185 128 0 5 6 8 13 8 6 0 26 13 42 28 17 15 39 34 51
42 67 47 251 223 320 305 21 26 50 59 63 74 14 14 51 62 83 106 33 44 66 88
74 97 7 10 10 18 6 18 -4 0 -2 4 3 8 14 10 65 90 65 102 0 5 3 10 8 10 4 0 37
57 72 127 36 71 70 131 75 135 6 4 7 8 3 8 -4 0 6 29 23 65 25 57 94 245 104
285 1 8 13 53 25 100 12 47 24 94 26 105 2 11 6 31 9 45 2 14 7 45 10 70 3 25
8 52 11 61 18 64 35 414 24 517 -3 28 -2 52 3 52 4 0 5 5 2 10 -8 13 -12 37
-19 115 -3 33 -8 71 -11 85 -2 14 -7 43 -10 65 -3 22 -8 49 -9 60 -4 22 -34
150 -41 178 -3 9 -7 25 -9 35 -10 39 -91 276 -106 307 -98 211 -169 346 -221
422 -16 23 -29 44 -29 48 0 3 -11 17 -25 31 -14 14 -25 31 -25 39 0 7 -3 15
-8 17 -4 2 -30 32 -57 68 -82 106 -94 120 -235 260 -142 141 -148 147 -270
238 -41 32 -76 60 -78 65 -2 4 -8 7 -13 7 -11 0 -72 42 -77 53 -2 4 -7 7 -12
7 -4 0 -38 18 -75 41 -67 41 -295 159 -306 159 -4 0 -24 8 -45 17 -22 9 -41
17 -44 18 -3 1 -12 4 -20 8 -156 62 -457 139 -595 152 -27 3 -63 7 -80 11 -33
6 -480 15 -486 10z"/>
<path d="M716 5095 c-8 -8 -18 -15 -23 -15 -9 0 -21 -6 -123 -62 -36 -19 -90
-49 -120 -65 -57 -31 -272 -145 -350 -185 -24 -13 -50 -28 -57 -35 -14 -12
-17 -5 93 -210 20 -38 57 -106 82 -153 71 -134 104 -194 115 -207 5 -7 6 -13
1 -13 -5 0 -4 -4 1 -8 6 -4 15 -17 22 -29 12 -21 10 -23 -40 -37 -114 -32
-209 -58 -229 -61 -38 -8 -88 -26 -88 -33 0 -4 7 -29 15 -57 9 -27 17 -59 20
-70 2 -11 16 -65 30 -120 15 -55 28 -108 30 -118 2 -9 6 -21 9 -25 3 -5 7 -19
10 -33 5 -24 41 -161 91 -344 15 -55 28 -107 31 -115 2 -8 8 -33 14 -55 6 -22
13 -48 14 -58 5 -38 20 -39 122 -11 55 14 104 27 109 29 6 1 30 7 55 14 25 7
52 14 60 16 8 2 35 8 60 15 25 7 50 13 55 15 6 1 17 5 25 8 8 4 62 18 120 32
58 14 126 33 152 41 l46 15 -10 36 c-5 19 -11 43 -13 52 -3 9 -14 50 -25 91
-11 41 -23 83 -25 92 -5 22 -67 254 -107 402 -33 120 -35 110 37 148 22 11 43
26 47 32 4 6 8 7 8 3 0 -4 28 8 63 27 34 19 82 46 107 60 25 13 60 31 77 40
l33 15 -41 78 c-23 43 -56 105 -74 138 -17 33 -47 89 -66 125 -18 36 -36 67
-39 70 -3 3 -20 34 -38 70 -97 189 -199 379 -214 398 -6 6 -7 12 -4 12 4 0 -2
14 -14 30 -24 34 -32 36 -54 15z"/>
<path d="M6868 2315 c-10 -13 -18 -26 -18 -30 0 -3 -22 -41 -49 -85 -27 -43
-52 -88 -56 -99 -3 -12 -11 -21 -16 -21 -5 0 -9 -4 -9 -9 0 -4 -19 -41 -42
-80 -24 -39 -48 -79 -53 -89 -30 -50 -142 -239 -152 -257 -7 -11 -22 -39 -35
-62 -12 -24 -26 -43 -30 -43 -4 0 -8 -5 -8 -10 0 -6 -10 -27 -23 -48 -35 -56
-39 -72 -19 -79 9 -4 52 -29 95 -55 43 -26 80 -48 82 -48 2 0 40 -22 85 -50
45 -27 86 -50 91 -50 5 0 9 -4 9 -10 0 -5 5 -10 11 -10 5 0 78 -41 161 -90 83
-50 151 -90 152 -88 1 2 11 17 21 33 11 17 25 40 31 51 14 27 254 433 391 663
103 173 104 174 84 192 -11 11 -22 19 -24 19 -2 0 -89 50 -193 112 -104 61
-249 146 -322 190 -73 43 -136 78 -140 78 -4 0 -15 -11 -24 -25z"/>
<path d="M2175 572 c-2 -2 -45 -5 -97 -5 l-93 -2 0 -93 0 -92 540 2 540 3 0
90 0 90 -83 5 c-46 3 -89 3 -97 0 -8 -3 -62 -3 -120 0 -58 3 -112 3 -120 0 -8
-3 -62 -3 -120 0 -58 3 -112 3 -120 0 -8 -3 -62 -3 -120 0 -59 3 -108 3 -110
2z"/>
<path d="M4227 543 c-1 -1 -103 -4 -227 -7 -216 -6 -276 -9 -420 -21 -156 -13
-240 -30 -224 -45 5 -5 27 -11 49 -14 22 -4 54 -9 70 -12 17 -3 57 -7 90 -9
33 -2 60 -4 60 -5 0 -2 116 -7 385 -16 235 -8 955 -8 1170 0 199 8 328 14 390
21 30 3 75 7 100 10 151 15 156 44 10 59 -255 27 -554 38 -1073 40 -208 1
-379 0 -380 -1z"/>
</g>
</svg>
